<?xml version="1.0" encoding="UTF-8" standalone="no"?>
<!DOCTYPE svg PUBLIC "-//W3C//DTD SVG 1.1//EN"
 "http://www.w3.org/Graphics/SVG/1.1/DTD/svg11.dtd">
<!-- Generated by graphviz version 2.28.0 (20120618.0523)
 -->
<!-- Title: G Pages: 1 -->
<svg width="1228pt" height="1052pt"
 viewBox="0.00 0.00 1228.00 1052.00" xmlns="http://www.w3.org/2000/svg" xmlns:xlink="http://www.w3.org/1999/xlink">
<g id="graph1" class="graph" transform="scale(1 1) rotate(0) translate(4 1048)">
<title>G</title>
<polygon fill="white" stroke="white" points="-4,5 -4,-1048 1225,-1048 1225,5 -4,5"/>
<!-- Hey Jude -->
<g id="node1" class="node"><title>Hey Jude</title>
<ellipse fill="none" stroke="black" cx="685" cy="-1026" rx="47.3615" ry="18"/>
<text text-anchor="middle" x="685" y="-1020.4" font-family="Times,serif" font-size="14.00">Hey Jude</text>
</g>
<!-- don&#39;t make it bad. -->
<g id="node2" class="node"><title>don&#39;t make it bad.</title>
<ellipse fill="none" stroke="black" cx="883" cy="-954" rx="79.2364" ry="18"/>
<text text-anchor="middle" x="883" y="-948.4" font-family="Times,serif" font-size="14.00">don&#39;t make it bad.</text>
</g>
<!-- Hey Jude&#45;&gt;don&#39;t make it bad. -->
<g id="edge2" class="edge"><title>Hey Jude&#45;&gt;don&#39;t make it bad.</title>
<path fill="none" stroke="black" d="M718.588,-1013.13C749.751,-1002.11 796.565,-985.558 832.28,-972.931"/>
<polygon fill="black" stroke="black" points="833.775,-976.115 842.036,-969.482 831.441,-969.516 833.775,-976.115"/>
</g>
<!-- don&#39;t be afraid. -->
<g id="node6" class="node"><title>don&#39;t be afraid.</title>
<ellipse fill="none" stroke="black" cx="396" cy="-954" rx="68.2283" ry="18"/>
<text text-anchor="middle" x="396" y="-948.4" font-family="Times,serif" font-size="14.00">don&#39;t be afraid.</text>
</g>
<!-- Hey Jude&#45;&gt;don&#39;t be afraid. -->
<g id="edge12" class="edge"><title>Hey Jude&#45;&gt;don&#39;t be afraid.</title>
<path fill="none" stroke="black" d="M646.324,-1015.63C597.136,-1003.72 511.735,-983.033 454.548,-969.181"/>
<polygon fill="black" stroke="black" points="455.109,-965.716 444.566,-966.763 453.461,-972.519 455.109,-965.716"/>
</g>
<!-- don&#39;t let me down. -->
<g id="node19" class="node"><title>don&#39;t let me down.</title>
<ellipse fill="none" stroke="black" cx="685" cy="-954" rx="82.2666" ry="18"/>
<text text-anchor="middle" x="685" y="-948.4" font-family="Times,serif" font-size="14.00">don&#39;t let me down.</text>
</g>
<!-- Hey Jude&#45;&gt;don&#39;t let me down. -->
<g id="edge40" class="edge"><title>Hey Jude&#45;&gt;don&#39;t let me down.</title>
<path fill="none" stroke="black" d="M685,-1007.7C685,-999.983 685,-990.712 685,-982.112"/>
<polygon fill="black" stroke="black" points="688.5,-982.104 685,-972.104 681.5,-982.104 688.5,-982.104"/>
</g>
<!-- Take a sad song and make it better. -->
<g id="node3" class="node"><title>Take a sad song and make it better.</title>
<ellipse fill="none" stroke="black" cx="936" cy="-810" rx="146.082" ry="18"/>
<text text-anchor="middle" x="936" y="-804.4" font-family="Times,serif" font-size="14.00">Take a sad song and make it better.</text>
</g>
<!-- don&#39;t make it bad.&#45;&gt;Take a sad song and make it better. -->
<g id="edge4" class="edge"><title>don&#39;t make it bad.&#45;&gt;Take a sad song and make it better.</title>
<path fill="none" stroke="black" d="M889.393,-935.871C898.505,-911.457 915.313,-866.426 926.059,-837.635"/>
<polygon fill="black" stroke="black" points="929.367,-838.782 929.584,-828.189 922.808,-836.334 929.367,-838.782"/>
</g>
<!-- Remember to let her into your heart -->
<g id="node4" class="node"><title>Remember to let her into your heart</title>
<ellipse fill="none" stroke="black" cx="716" cy="-738" rx="149.111" ry="18"/>
<text text-anchor="middle" x="716" y="-732.4" font-family="Times,serif" font-size="14.00">Remember to let her into your heart</text>
</g>
<!-- Take a sad song and make it better.&#45;&gt;Remember to let her into your heart -->
<g id="edge6" class="edge"><title>Take a sad song and make it better.&#45;&gt;Remember to let her into your heart</title>
<path fill="none" stroke="black" d="M885.803,-793.028C853.254,-782.672 810.667,-769.121 776.286,-758.182"/>
<polygon fill="black" stroke="black" points="776.952,-754.721 766.361,-755.024 774.829,-761.391 776.952,-754.721"/>
</g>
<!-- Remember to let her under your skin -->
<g id="node28" class="node"><title>Remember to let her under your skin</title>
<ellipse fill="none" stroke="black" cx="1037" cy="-738" rx="153.255" ry="18"/>
<text text-anchor="middle" x="1037" y="-732.4" font-family="Times,serif" font-size="14.00">Remember to let her under your skin</text>
</g>
<!-- Take a sad song and make it better.&#45;&gt;Remember to let her under your skin -->
<g id="edge66" class="edge"><title>Take a sad song and make it better.&#45;&gt;Remember to let her under your skin</title>
<path fill="none" stroke="black" d="M960.192,-792.233C973.337,-783.123 989.783,-771.725 1004.08,-761.816"/>
<polygon fill="black" stroke="black" points="1006.43,-764.446 1012.66,-755.873 1002.44,-758.692 1006.43,-764.446"/>
</g>
<!-- Then you can start to make it better. -->
<g id="node5" class="node"><title>Then you can start to make it better.</title>
<ellipse fill="none" stroke="black" cx="656" cy="-666" rx="149.424" ry="18"/>
<text text-anchor="middle" x="656" y="-660.4" font-family="Times,serif" font-size="14.00">Then you can start to make it better.</text>
</g>
<!-- Remember to let her into your heart&#45;&gt;Then you can start to make it better. -->
<g id="edge8" class="edge"><title>Remember to let her into your heart&#45;&gt;Then you can start to make it better.</title>
<path fill="none" stroke="black" d="M701.476,-720.055C694.287,-711.668 685.465,-701.376 677.511,-692.096"/>
<polygon fill="black" stroke="black" points="679.973,-689.59 670.807,-684.275 674.658,-694.146 679.973,-689.59"/>
</g>
<!-- Then you can start to make it better.&#45;&gt;Hey Jude -->
<g id="edge10" class="edge"><title>Then you can start to make it better.&#45;&gt;Hey Jude</title>
<path fill="none" stroke="black" d="M607.656,-683.126C589.56,-691.455 570.404,-703.432 558,-720 533.758,-752.377 539,-768.553 539,-809 539,-883 539,-883 539,-883 539,-942.624 602.347,-985.311 645.588,-1007.5"/>
<polygon fill="black" stroke="black" points="644.236,-1010.74 654.749,-1012.06 647.351,-1004.47 644.236,-1010.74"/>
</g>
<!-- So let it out and let it in -->
<g id="node22" class="node"><title>So let it out and let it in</title>
<ellipse fill="none" stroke="black" cx="627" cy="-594" rx="101.45" ry="18"/>
<text text-anchor="middle" x="627" y="-588.4" font-family="Times,serif" font-size="14.00">So let it out and let it in</text>
</g>
<!-- Then you can start to make it better.&#45;&gt;So let it out and let it in -->
<g id="edge48" class="edge"><title>Then you can start to make it better.&#45;&gt;So let it out and let it in</title>
<path fill="none" stroke="black" d="M648.831,-647.697C645.565,-639.813 641.626,-630.304 637.998,-621.546"/>
<polygon fill="black" stroke="black" points="641.147,-620.003 634.086,-612.104 634.68,-622.683 641.147,-620.003"/>
</g>
<!-- You were made to go out and get her. -->
<g id="node7" class="node"><title>You were made to go out and get her.</title>
<ellipse fill="none" stroke="black" cx="354" cy="-882" rx="155.24" ry="18"/>
<text text-anchor="middle" x="354" y="-876.4" font-family="Times,serif" font-size="14.00">You were made to go out and get her.</text>
</g>
<!-- don&#39;t be afraid.&#45;&gt;You were made to go out and get her. -->
<g id="edge14" class="edge"><title>don&#39;t be afraid.&#45;&gt;You were made to go out and get her.</title>
<path fill="none" stroke="black" d="M385.833,-936.055C380.953,-927.922 374.999,-917.998 369.566,-908.943"/>
<polygon fill="black" stroke="black" points="372.511,-907.049 364.365,-900.275 366.509,-910.651 372.511,-907.049"/>
</g>
<!-- The minute you let her under your skin -->
<g id="node8" class="node"><title>The minute you let her under your skin</title>
<ellipse fill="none" stroke="black" cx="349" cy="-738" rx="162.038" ry="18"/>
<text text-anchor="middle" x="349" y="-732.4" font-family="Times,serif" font-size="14.00">The minute you let her under your skin</text>
</g>
<!-- You were made to go out and get her.&#45;&gt;The minute you let her under your skin -->
<g id="edge16" class="edge"><title>You were made to go out and get her.&#45;&gt;The minute you let her under your skin</title>
<path fill="none" stroke="black" d="M353.397,-863.871C352.545,-839.67 350.979,-795.211 349.965,-766.393"/>
<polygon fill="black" stroke="black" points="353.455,-766.06 349.605,-756.189 346.459,-766.306 353.455,-766.06"/>
</g>
<!-- Then you begin to make it better. -->
<g id="node9" class="node"><title>Then you begin to make it better.</title>
<ellipse fill="none" stroke="black" cx="349" cy="-666" rx="138.444" ry="18"/>
<text text-anchor="middle" x="349" y="-660.4" font-family="Times,serif" font-size="14.00">Then you begin to make it better.</text>
</g>
<!-- The minute you let her under your skin&#45;&gt;Then you begin to make it better. -->
<g id="edge18" class="edge"><title>The minute you let her under your skin&#45;&gt;Then you begin to make it better.</title>
<path fill="none" stroke="black" d="M349,-719.697C349,-711.983 349,-702.712 349,-694.112"/>
<polygon fill="black" stroke="black" points="352.5,-694.104 349,-684.104 345.5,-694.104 352.5,-694.104"/>
</g>
<!-- And anytime you feel the pain -->
<g id="node10" class="node"><title>And anytime you feel the pain</title>
<ellipse fill="none" stroke="black" cx="364" cy="-594" rx="128.339" ry="18"/>
<text text-anchor="middle" x="364" y="-588.4" font-family="Times,serif" font-size="14.00">And anytime you feel the pain</text>
</g>
<!-- Then you begin to make it better.&#45;&gt;And anytime you feel the pain -->
<g id="edge20" class="edge"><title>Then you begin to make it better.&#45;&gt;And anytime you feel the pain</title>
<path fill="none" stroke="black" d="M352.708,-647.697C354.361,-639.983 356.347,-630.712 358.19,-622.112"/>
<polygon fill="black" stroke="black" points="361.662,-622.616 360.335,-612.104 354.817,-621.149 361.662,-622.616"/>
</g>
<!-- hey Jude -->
<g id="node11" class="node"><title>hey Jude</title>
<ellipse fill="none" stroke="black" cx="583" cy="-522" rx="45.1428" ry="18"/>
<text text-anchor="middle" x="583" y="-516.4" font-family="Times,serif" font-size="14.00">hey Jude</text>
</g>
<!-- And anytime you feel the pain&#45;&gt;hey Jude -->
<g id="edge22" class="edge"><title>And anytime you feel the pain&#45;&gt;hey Jude</title>
<path fill="none" stroke="black" d="M413.148,-577.291C450.957,-565.205 502.728,-548.658 539.144,-537.018"/>
<polygon fill="black" stroke="black" points="540.524,-540.251 548.984,-533.873 538.393,-533.584 540.524,-540.251"/>
</g>
<!-- refrain -->
<g id="node12" class="node"><title>refrain</title>
<ellipse fill="none" stroke="black" cx="339" cy="-450" rx="36.1558" ry="18"/>
<text text-anchor="middle" x="339" y="-444.4" font-family="Times,serif" font-size="14.00">refrain</text>
</g>
<!-- hey Jude&#45;&gt;refrain -->
<g id="edge24" class="edge"><title>hey Jude&#45;&gt;refrain</title>
<path fill="none" stroke="black" d="M547.52,-510.821C502.944,-498.033 426.619,-476.137 379.712,-462.68"/>
<polygon fill="black" stroke="black" points="380.463,-459.254 369.885,-459.861 378.532,-465.983 380.463,-459.254"/>
</g>
<!-- begin -->
<g id="node23" class="node"><title>begin</title>
<ellipse fill="none" stroke="black" cx="582" cy="-450" rx="32.2368" ry="18"/>
<text text-anchor="middle" x="582" y="-444.4" font-family="Times,serif" font-size="14.00">begin</text>
</g>
<!-- hey Jude&#45;&gt;begin -->
<g id="edge52" class="edge"><title>hey Jude&#45;&gt;begin</title>
<path fill="none" stroke="black" d="M582.753,-503.697C582.643,-495.983 582.51,-486.712 582.387,-478.112"/>
<polygon fill="black" stroke="black" points="585.887,-478.053 582.244,-468.104 578.888,-478.153 585.887,-478.053"/>
</g>
<!-- you&#39;ll do -->
<g id="node26" class="node"><title>you&#39;ll do</title>
<ellipse fill="none" stroke="black" cx="844" cy="-378" rx="44.5479" ry="18"/>
<text text-anchor="middle" x="844" y="-372.4" font-family="Times,serif" font-size="14.00">you&#39;ll do</text>
</g>
<!-- hey Jude&#45;&gt;you&#39;ll do -->
<g id="edge60" class="edge"><title>hey Jude&#45;&gt;you&#39;ll do</title>
<path fill="none" stroke="black" d="M627.42,-518.428C671.128,-513.941 737.968,-501.647 785,-468 807.156,-452.149 823.317,-425.169 833.065,-405.06"/>
<polygon fill="black" stroke="black" points="836.317,-406.365 837.333,-395.819 829.962,-403.43 836.317,-406.365"/>
</g>
<!-- Don&#39;t carry the world upon your shoulders. -->
<g id="node13" class="node"><title>Don&#39;t carry the world upon your shoulders.</title>
<ellipse fill="none" stroke="black" cx="182" cy="-378" rx="177.271" ry="18"/>
<text text-anchor="middle" x="182" y="-372.4" font-family="Times,serif" font-size="14.00">Don&#39;t carry the world upon your shoulders.</text>
</g>
<!-- refrain&#45;&gt;Don&#39;t carry the world upon your shoulders. -->
<g id="edge26" class="edge"><title>refrain&#45;&gt;Don&#39;t carry the world upon your shoulders.</title>
<path fill="none" stroke="black" d="M312.722,-437.284C289.842,-427.083 256.132,-412.052 228.674,-399.81"/>
<polygon fill="black" stroke="black" points="229.81,-396.484 219.251,-395.609 226.959,-402.878 229.81,-396.484"/>
</g>
<!-- For well you know that it&#39;s a fool who plays it cool -->
<g id="node14" class="node"><title>For well you know that it&#39;s a fool who plays it cool</title>
<ellipse fill="none" stroke="black" cx="207" cy="-306" rx="207.16" ry="18"/>
<text text-anchor="middle" x="207" y="-300.4" font-family="Times,serif" font-size="14.00">For well you know that it&#39;s a fool who plays it cool</text>
</g>
<!-- Don&#39;t carry the world upon your shoulders.&#45;&gt;For well you know that it&#39;s a fool who plays it cool -->
<g id="edge28" class="edge"><title>Don&#39;t carry the world upon your shoulders.&#45;&gt;For well you know that it&#39;s a fool who plays it cool</title>
<path fill="none" stroke="black" d="M188.18,-359.697C190.995,-351.813 194.391,-342.304 197.519,-333.546"/>
<polygon fill="black" stroke="black" points="200.824,-334.699 200.891,-324.104 194.232,-332.345 200.824,-334.699"/>
</g>
<!-- By making his world a little colder. -->
<g id="node15" class="node"><title>By making his world a little colder.</title>
<ellipse fill="none" stroke="black" cx="346" cy="-234" rx="147.338" ry="18"/>
<text text-anchor="middle" x="346" y="-228.4" font-family="Times,serif" font-size="14.00">By making his world a little colder.</text>
</g>
<!-- For well you know that it&#39;s a fool who plays it cool&#45;&gt;By making his world a little colder. -->
<g id="edge30" class="edge"><title>For well you know that it&#39;s a fool who plays it cool&#45;&gt;By making his world a little colder.</title>
<path fill="none" stroke="black" d="M240.294,-288.233C259.378,-278.623 283.515,-266.467 303.905,-256.199"/>
<polygon fill="black" stroke="black" points="305.621,-259.254 312.978,-251.63 302.472,-253.002 305.621,-259.254"/>
</g>
<!-- Da da da da da da -->
<g id="node16" class="node"><title>Da da da da da da</title>
<ellipse fill="none" stroke="black" cx="913" cy="-162" rx="79.4123" ry="18"/>
<text text-anchor="middle" x="913" y="-156.4" font-family="Times,serif" font-size="14.00">Da da da da da da</text>
</g>
<!-- By making his world a little colder.&#45;&gt;Da da da da da da -->
<g id="edge32" class="edge"><title>By making his world a little colder.&#45;&gt;Da da da da da da</title>
<path fill="none" stroke="black" d="M445.738,-220.687C556.641,-206.995 733.469,-185.164 834.811,-172.653"/>
<polygon fill="black" stroke="black" points="835.483,-176.097 844.979,-171.398 834.626,-169.149 835.483,-176.097"/>
</g>
<!-- da da da -->
<g id="node17" class="node"><title>da da da</title>
<ellipse fill="none" stroke="black" cx="993" cy="-90" rx="43.3141" ry="18"/>
<text text-anchor="middle" x="993" y="-84.4" font-family="Times,serif" font-size="14.00">da da da</text>
</g>
<!-- Da da da da da da&#45;&gt;da da da -->
<g id="edge34" class="edge"><title>Da da da da da da&#45;&gt;da da da</title>
<path fill="none" stroke="black" d="M931.959,-144.411C942.621,-135.082 956.071,-123.313 967.63,-113.199"/>
<polygon fill="black" stroke="black" points="970.052,-115.73 975.273,-106.511 965.443,-110.462 970.052,-115.73"/>
</g>
<!-- hey Jude... -->
<g id="node18" class="node"><title>hey Jude...</title>
<ellipse fill="none" stroke="black" cx="1106" cy="-18" rx="52.0078" ry="18"/>
<text text-anchor="middle" x="1106" y="-12.4" font-family="Times,serif" font-size="14.00">hey Jude...</text>
</g>
<!-- da da da&#45;&gt;hey Jude... -->
<g id="edge36" class="edge"><title>da da da&#45;&gt;hey Jude...</title>
<path fill="none" stroke="black" d="M1016.14,-74.6655C1032.56,-64.4908 1054.85,-50.686 1073.12,-39.3696"/>
<polygon fill="black" stroke="black" points="1075.06,-42.2825 1081.72,-34.0409 1071.38,-36.3317 1075.06,-42.2825"/>
</g>
<!-- hey Jude...&#45;&gt;Hey Jude -->
<g id="edge38" class="edge"><title>hey Jude...&#45;&gt;Hey Jude</title>
<path fill="none" stroke="black" d="M1130.18,-34.0684C1163.64,-57.0095 1220,-104.094 1220,-161 1220,-883 1220,-883 1220,-883 1220,-981.107 879.668,-1013.05 741.888,-1021.96"/>
<polygon fill="black" stroke="black" points="741.303,-1018.49 731.542,-1022.61 741.742,-1025.48 741.303,-1018.49"/>
</g>
<!-- You have found her -->
<g id="node20" class="node"><title>You have found her</title>
<ellipse fill="none" stroke="black" cx="685" cy="-882" rx="87.0567" ry="18"/>
<text text-anchor="middle" x="685" y="-876.4" font-family="Times,serif" font-size="14.00">You have found her</text>
</g>
<!-- don&#39;t let me down.&#45;&gt;You have found her -->
<g id="edge42" class="edge"><title>don&#39;t let me down.&#45;&gt;You have found her</title>
<path fill="none" stroke="black" d="M685,-935.697C685,-927.983 685,-918.712 685,-910.112"/>
<polygon fill="black" stroke="black" points="688.5,-910.104 685,-900.104 681.5,-910.104 688.5,-910.104"/>
</g>
<!-- now go and get her. -->
<g id="node21" class="node"><title>now go and get her.</title>
<ellipse fill="none" stroke="black" cx="685" cy="-810" rx="86.4085" ry="18"/>
<text text-anchor="middle" x="685" y="-804.4" font-family="Times,serif" font-size="14.00">now go and get her.</text>
</g>
<!-- You have found her&#45;&gt;now go and get her. -->
<g id="edge44" class="edge"><title>You have found her&#45;&gt;now go and get her.</title>
<path fill="none" stroke="black" d="M685,-863.697C685,-855.983 685,-846.712 685,-838.112"/>
<polygon fill="black" stroke="black" points="688.5,-838.104 685,-828.104 681.5,-838.104 688.5,-838.104"/>
</g>
<!-- now go and get her.&#45;&gt;Remember to let her into your heart -->
<g id="edge46" class="edge"><title>now go and get her.&#45;&gt;Remember to let her into your heart</title>
<path fill="none" stroke="black" d="M692.504,-792.055C696.031,-784.091 700.318,-774.411 704.26,-765.51"/>
<polygon fill="black" stroke="black" points="707.5,-766.836 708.35,-756.275 701.1,-764.002 707.5,-766.836"/>
</g>
<!-- So let it out and let it in&#45;&gt;hey Jude -->
<g id="edge50" class="edge"><title>So let it out and let it in&#45;&gt;hey Jude</title>
<path fill="none" stroke="black" d="M616.349,-576.055C611.16,-567.801 604.812,-557.701 599.052,-548.538"/>
<polygon fill="black" stroke="black" points="601.838,-546.393 593.553,-539.789 595.912,-550.118 601.838,-546.393"/>
</g>
<!-- You&#39;re waiting for someone to perform with. -->
<g id="node24" class="node"><title>You&#39;re waiting for someone to perform with.</title>
<ellipse fill="none" stroke="black" cx="560" cy="-378" rx="183.274" ry="18"/>
<text text-anchor="middle" x="560" y="-372.4" font-family="Times,serif" font-size="14.00">You&#39;re waiting for someone to perform with.</text>
</g>
<!-- begin&#45;&gt;You&#39;re waiting for someone to perform with. -->
<g id="edge54" class="edge"><title>begin&#45;&gt;You&#39;re waiting for someone to perform with.</title>
<path fill="none" stroke="black" d="M576.674,-432.055C574.225,-424.261 571.258,-414.822 568.511,-406.079"/>
<polygon fill="black" stroke="black" points="571.767,-404.766 565.429,-396.275 565.089,-406.865 571.767,-404.766"/>
</g>
<!-- And don&#39;t you know that it&#39;s just you -->
<g id="node25" class="node"><title>And don&#39;t you know that it&#39;s just you</title>
<ellipse fill="none" stroke="black" cx="635" cy="-306" rx="153.305" ry="18"/>
<text text-anchor="middle" x="635" y="-300.4" font-family="Times,serif" font-size="14.00">And don&#39;t you know that it&#39;s just you</text>
</g>
<!-- You&#39;re waiting for someone to perform with.&#45;&gt;And don&#39;t you know that it&#39;s just you -->
<g id="edge56" class="edge"><title>You&#39;re waiting for someone to perform with.&#45;&gt;And don&#39;t you know that it&#39;s just you</title>
<path fill="none" stroke="black" d="M578.155,-360.055C587.483,-351.349 599.009,-340.591 609.239,-331.043"/>
<polygon fill="black" stroke="black" points="611.829,-333.414 616.752,-324.032 607.053,-328.296 611.829,-333.414"/>
</g>
<!-- And don&#39;t you know that it&#39;s just you&#45;&gt;hey Jude -->
<g id="edge58" class="edge"><title>And don&#39;t you know that it&#39;s just you&#45;&gt;hey Jude</title>
<path fill="none" stroke="black" d="M701.692,-322.271C721.247,-330.182 740.459,-342.102 752,-360 760.671,-373.447 759.203,-381.713 752,-396 725.174,-449.208 663.817,-485.393 622.891,-504.625"/>
<polygon fill="black" stroke="black" points="621.368,-501.473 613.725,-508.811 624.276,-507.841 621.368,-501.473"/>
</g>
<!-- The movement you need is on your shoulder. -->
<g id="node27" class="node"><title>The movement you need is on your shoulder.</title>
<ellipse fill="none" stroke="black" cx="835" cy="-234" rx="185.056" ry="18"/>
<text text-anchor="middle" x="835" y="-228.4" font-family="Times,serif" font-size="14.00">The movement you need is on your shoulder.</text>
</g>
<!-- you&#39;ll do&#45;&gt;The movement you need is on your shoulder. -->
<g id="edge62" class="edge"><title>you&#39;ll do&#45;&gt;The movement you need is on your shoulder.</title>
<path fill="none" stroke="black" d="M842.914,-359.871C841.381,-335.67 838.563,-291.211 836.736,-262.393"/>
<polygon fill="black" stroke="black" points="840.215,-261.948 836.089,-252.189 833.229,-262.391 840.215,-261.948"/>
</g>
<!-- The movement you need is on your shoulder.&#45;&gt;Da da da da da da -->
<g id="edge64" class="edge"><title>The movement you need is on your shoulder.&#45;&gt;Da da da da da da</title>
<path fill="none" stroke="black" d="M853.882,-216.055C863.823,-207.134 876.165,-196.057 886.997,-186.336"/>
<polygon fill="black" stroke="black" points="889.457,-188.831 894.561,-179.547 884.781,-183.622 889.457,-188.831"/>
</g>
<!-- Then you&#39;ll begin to make it -->
<g id="node29" class="node"><title>Then you&#39;ll begin to make it</title>
<ellipse fill="none" stroke="black" cx="1036" cy="-666" rx="119.179" ry="18"/>
<text text-anchor="middle" x="1036" y="-660.4" font-family="Times,serif" font-size="14.00">Then you&#39;ll begin to make it</text>
</g>
<!-- Remember to let her under your skin&#45;&gt;Then you&#39;ll begin to make it -->
<g id="edge68" class="edge"><title>Remember to let her under your skin&#45;&gt;Then you&#39;ll begin to make it</title>
<path fill="none" stroke="black" d="M1036.75,-719.697C1036.64,-711.983 1036.51,-702.712 1036.39,-694.112"/>
<polygon fill="black" stroke="black" points="1039.89,-694.053 1036.24,-684.104 1032.89,-694.153 1039.89,-694.053"/>
</g>
<!-- Better better better better better better -->
<g id="node30" class="node"><title>Better better better better better better</title>
<ellipse fill="none" stroke="black" cx="1035" cy="-594" rx="156.425" ry="18"/>
<text text-anchor="middle" x="1035" y="-588.4" font-family="Times,serif" font-size="14.00">Better better better better better better</text>
</g>
<!-- Then you&#39;ll begin to make it&#45;&gt;Better better better better better better -->
<g id="edge70" class="edge"><title>Then you&#39;ll begin to make it&#45;&gt;Better better better better better better</title>
<path fill="none" stroke="black" d="M1035.75,-647.697C1035.64,-639.983 1035.51,-630.712 1035.39,-622.112"/>
<polygon fill="black" stroke="black" points="1038.89,-622.053 1035.24,-612.104 1031.89,-622.153 1038.89,-622.053"/>
</g>
<!-- oh. -->
<g id="node31" class="node"><title>oh.</title>
<ellipse fill="none" stroke="black" cx="1046" cy="-522" rx="27" ry="18"/>
<text text-anchor="middle" x="1046" y="-516.4" font-family="Times,serif" font-size="14.00">oh.</text>
</g>
<!-- Better better better better better better&#45;&gt;oh. -->
<g id="edge72" class="edge"><title>Better better better better better better&#45;&gt;oh.</title>
<path fill="none" stroke="black" d="M1037.72,-575.697C1038.93,-567.983 1040.39,-558.712 1041.74,-550.112"/>
<polygon fill="black" stroke="black" points="1045.22,-550.526 1043.31,-540.104 1038.3,-549.44 1045.22,-550.526"/>
</g>
<!-- oh.&#45;&gt;Da da da da da da -->
<g id="edge74" class="edge"><title>oh.&#45;&gt;Da da da da da da</title>
<path fill="none" stroke="black" d="M1046.4,-503.952C1046.98,-477.294 1048,-424.119 1048,-379 1048,-379 1048,-379 1048,-305 1048,-264.553 1054.32,-247.545 1029,-216 1015.3,-198.931 994.888,-187.142 974.987,-179.1"/>
<polygon fill="black" stroke="black" points="976.19,-175.813 965.598,-175.555 973.717,-182.362 976.19,-175.813"/>
</g>
</g>
</svg>
