<?xml version="1.0" encoding="UTF-8" standalone="no"?>
<!DOCTYPE svg PUBLIC "-//W3C//DTD SVG 1.1//EN"
 "http://www.w3.org/Graphics/SVG/1.1/DTD/svg11.dtd">
<!-- Generated by graphviz version 2.28.0 (20120618.0523)
 -->
<!-- Title: G Pages: 1 -->
<svg width="2847pt" height="692pt"
 viewBox="0.00 0.00 2846.72 692.00" xmlns="http://www.w3.org/2000/svg" xmlns:xlink="http://www.w3.org/1999/xlink">
<g id="graph1" class="graph" transform="scale(1 1) rotate(0) translate(4 688)">
<title>G</title>
<polygon fill="white" stroke="white" points="-4,5 -4,-688 2843.72,-688 2843.72,5 -4,5"/>
<!-- Hey Jude -->
<g id="node1" class="node"><title>Hey Jude</title>
<ellipse fill="none" stroke="black" cx="1504" cy="-666" rx="47.3615" ry="18"/>
<text text-anchor="middle" x="1504" y="-660.4" font-family="Times,serif" font-size="14.00">Hey Jude</text>
</g>
<!-- don&#39;t make it bad. -->
<g id="node2" class="node"><title>don&#39;t make it bad.</title>
<ellipse fill="none" stroke="black" cx="1231" cy="-594" rx="79.2364" ry="18"/>
<text text-anchor="middle" x="1231" y="-588.4" font-family="Times,serif" font-size="14.00">don&#39;t make it bad.</text>
</g>
<!-- Hey Jude&#45;&gt;don&#39;t make it bad. -->
<g id="edge2" class="edge"><title>Hey Jude&#45;&gt;don&#39;t make it bad.</title>
<path fill="none" stroke="black" d="M1466.04,-655.267C1420.89,-643.691 1344.96,-624.22 1291.64,-610.549"/>
<polygon fill="black" stroke="black" points="1292.19,-607.075 1281.63,-607.982 1290.45,-613.856 1292.19,-607.075"/>
</g>
<!-- don&#39;t be afraid. -->
<g id="node7" class="node"><title>don&#39;t be afraid.</title>
<ellipse fill="none" stroke="black" cx="1702" cy="-594" rx="68.2283" ry="18"/>
<text text-anchor="middle" x="1702" y="-588.4" font-family="Times,serif" font-size="14.00">don&#39;t be afraid.</text>
</g>
<!-- Hey Jude&#45;&gt;don&#39;t be afraid. -->
<g id="edge16" class="edge"><title>Hey Jude&#45;&gt;don&#39;t be afraid.</title>
<path fill="none" stroke="black" d="M1537.59,-653.125C1569.26,-641.93 1617.08,-625.021 1653,-612.322"/>
<polygon fill="black" stroke="black" points="1654.54,-615.493 1662.8,-608.86 1652.2,-608.893 1654.54,-615.493"/>
</g>
<!-- don&#39;t let me down. -->
<g id="node20" class="node"><title>don&#39;t let me down.</title>
<ellipse fill="none" stroke="black" cx="1448" cy="-594" rx="82.2666" ry="18"/>
<text text-anchor="middle" x="1448" y="-588.4" font-family="Times,serif" font-size="14.00">don&#39;t let me down.</text>
</g>
<!-- Hey Jude&#45;&gt;don&#39;t let me down. -->
<g id="edge52" class="edge"><title>Hey Jude&#45;&gt;don&#39;t let me down.</title>
<path fill="none" stroke="black" d="M1490.73,-648.411C1483.92,-639.906 1475.5,-629.372 1467.93,-619.914"/>
<polygon fill="black" stroke="black" points="1470.55,-617.578 1461.56,-611.956 1465.08,-621.951 1470.55,-617.578"/>
</g>
<!-- Take a sad song and make it better. -->
<g id="node3" class="node"><title>Take a sad song and make it better.</title>
<ellipse fill="none" stroke="black" cx="1195" cy="-450" rx="146.082" ry="18"/>
<text text-anchor="middle" x="1195" y="-444.4" font-family="Times,serif" font-size="14.00">Take a sad song and make it better.</text>
</g>
<!-- don&#39;t make it bad.&#45;&gt;Take a sad song and make it better. -->
<g id="edge4" class="edge"><title>don&#39;t make it bad.&#45;&gt;Take a sad song and make it better.</title>
<path fill="none" stroke="black" d="M1226.66,-575.871C1220.5,-551.564 1209.15,-506.819 1201.85,-478.013"/>
<polygon fill="black" stroke="black" points="1205.21,-477.022 1199.36,-468.189 1198.42,-478.743 1205.21,-477.022"/>
</g>
<!-- Remember to let her into your heart -->
<g id="node4" class="node"><title>Remember to let her into your heart</title>
<ellipse fill="none" stroke="black" cx="1384" cy="-378" rx="149.111" ry="18"/>
<text text-anchor="middle" x="1384" y="-372.4" font-family="Times,serif" font-size="14.00">Remember to let her into your heart</text>
</g>
<!-- Take a sad song and make it better.&#45;&gt;Remember to let her into your heart -->
<g id="edge6" class="edge"><title>Take a sad song and make it better.&#45;&gt;Remember to let her into your heart</title>
<path fill="none" stroke="black" d="M1238.84,-432.765C1266.17,-422.641 1301.53,-409.543 1330.51,-398.81"/>
<polygon fill="black" stroke="black" points="1331.91,-402.024 1340.08,-395.268 1329.48,-395.459 1331.91,-402.024"/>
</g>
<!-- Remember to let her under your skin -->
<g id="node29" class="node"><title>Remember to let her under your skin</title>
<ellipse fill="none" stroke="black" cx="1063" cy="-378" rx="153.255" ry="18"/>
<text text-anchor="middle" x="1063" y="-372.4" font-family="Times,serif" font-size="14.00">Remember to let her under your skin</text>
</g>
<!-- Take a sad song and make it better.&#45;&gt;Remember to let her under your skin -->
<g id="edge82" class="edge"><title>Take a sad song and make it better.&#45;&gt;Remember to let her under your skin</title>
<path fill="none" stroke="black" d="M1163.72,-432.411C1145.68,-422.848 1122.82,-410.721 1103.43,-400.441"/>
<polygon fill="black" stroke="black" points="1104.99,-397.305 1094.52,-395.713 1101.71,-403.49 1104.99,-397.305"/>
</g>
<g id="node5" class="node"><title></title>
<ellipse fill="none" stroke="black" cx="1472" cy="-306" rx="27" ry="18"/>
</g>
<!-- Remember to let her into your heart&#45;&gt; -->
<g id="edge8" class="edge"><title>Remember to let her into your heart&#45;&gt;</title>
<path fill="none" stroke="black" d="M1405.3,-360.055C1417.9,-350.031 1433.93,-337.286 1447.11,-326.801"/>
<polygon fill="black" stroke="black" points="1449.65,-329.252 1455.3,-320.287 1445.29,-323.774 1449.65,-329.252"/>
</g>
<!-- &#45;&gt;Hey Jude -->
<g id="edge14" class="edge"><title>&#45;&gt;Hey Jude</title>
<path fill="none" stroke="black" d="M1493.05,-317.546C1508.97,-326.624 1530.06,-341.222 1542,-360 1563.71,-394.128 1561,-408.553 1561,-449 1561,-523 1561,-523 1561,-523 1561,-563.746 1555.35,-574.68 1539,-612 1534.73,-621.745 1528.71,-631.672 1522.86,-640.261"/>
<polygon fill="black" stroke="black" points="1519.83,-638.479 1516.91,-648.663 1525.54,-642.525 1519.83,-638.479"/>
</g>
<!-- Then you can start to make it better. -->
<g id="node6" class="node"><title>Then you can start to make it better.</title>
<ellipse fill="none" stroke="black" cx="149" cy="-234" rx="149.424" ry="18"/>
<text text-anchor="middle" x="149" y="-228.4" font-family="Times,serif" font-size="14.00">Then you can start to make it better.</text>
</g>
<!-- &#45;&gt;Then you can start to make it better. -->
<g id="edge10" class="edge"><title>&#45;&gt;Then you can start to make it better.</title>
<path fill="none" stroke="black" d="M1445.05,-304.447C1316.72,-301.54 756.374,-286.831 299,-252 285.985,-251.009 272.388,-249.808 258.917,-248.509"/>
<polygon fill="black" stroke="black" points="258.947,-244.995 248.652,-247.498 258.261,-251.961 258.947,-244.995"/>
</g>
<!-- Then you begin to make it better. -->
<g id="node10" class="node"><title>Then you begin to make it better.</title>
<ellipse fill="none" stroke="black" cx="456" cy="-234" rx="138.444" ry="18"/>
<text text-anchor="middle" x="456" y="-228.4" font-family="Times,serif" font-size="14.00">Then you begin to make it better.</text>
</g>
<!-- &#45;&gt;Then you begin to make it better. -->
<g id="edge24" class="edge"><title>&#45;&gt;Then you begin to make it better.</title>
<path fill="none" stroke="black" d="M1444.81,-303.958C1337.18,-299.46 932.01,-280.622 600,-252 587.269,-250.902 573.956,-249.622 560.782,-248.265"/>
<polygon fill="black" stroke="black" points="561.057,-244.775 550.747,-247.214 560.328,-251.737 561.057,-244.775"/>
</g>
<!-- And anytime you feel the pain -->
<g id="node11" class="node"><title>And anytime you feel the pain</title>
<ellipse fill="none" stroke="black" cx="1141" cy="-162" rx="128.339" ry="18"/>
<text text-anchor="middle" x="1141" y="-156.4" font-family="Times,serif" font-size="14.00">And anytime you feel the pain</text>
</g>
<!-- &#45;&gt;And anytime you feel the pain -->
<g id="edge28" class="edge"><title>&#45;&gt;And anytime you feel the pain</title>
<path fill="none" stroke="black" d="M1449.77,-295.462C1396.5,-272.61 1260.62,-214.319 1188.17,-183.236"/>
<polygon fill="black" stroke="black" points="1189.38,-179.946 1178.81,-179.22 1186.62,-186.379 1189.38,-179.946"/>
</g>
<!-- Don&#39;t carry the world upon your shoulders. -->
<g id="node14" class="node"><title>Don&#39;t carry the world upon your shoulders.</title>
<ellipse fill="none" stroke="black" cx="1721" cy="-234" rx="177.271" ry="18"/>
<text text-anchor="middle" x="1721" y="-228.4" font-family="Times,serif" font-size="14.00">Don&#39;t carry the world upon your shoulders.</text>
</g>
<!-- &#45;&gt;Don&#39;t carry the world upon your shoulders. -->
<g id="edge36" class="edge"><title>&#45;&gt;Don&#39;t carry the world upon your shoulders.</title>
<path fill="none" stroke="black" d="M1496.33,-298.161C1532.54,-287.98 1601.95,-268.468 1654.08,-253.813"/>
<polygon fill="black" stroke="black" points="1655.25,-257.119 1663.93,-251.043 1653.36,-250.38 1655.25,-257.119"/>
</g>
<!-- Da da da da da da -->
<g id="node17" class="node"><title>Da da da da da da</title>
<ellipse fill="none" stroke="black" cx="2034" cy="-234" rx="79.4123" ry="18"/>
<text text-anchor="middle" x="2034" y="-228.4" font-family="Times,serif" font-size="14.00">Da da da da da da</text>
</g>
<!-- &#45;&gt;Da da da da da da -->
<g id="edge44" class="edge"><title>&#45;&gt;Da da da da da da</title>
<path fill="none" stroke="black" d="M1498.73,-302.598C1570.39,-296.022 1772.74,-276.569 1940,-252 1948.26,-250.787 1956.9,-249.395 1965.45,-247.94"/>
<polygon fill="black" stroke="black" points="1966.18,-251.367 1975.43,-246.21 1964.98,-244.47 1966.18,-251.367"/>
</g>
<!-- So let it out and let it in -->
<g id="node23" class="node"><title>So let it out and let it in</title>
<ellipse fill="none" stroke="black" cx="1389" cy="-162" rx="101.45" ry="18"/>
<text text-anchor="middle" x="1389" y="-156.4" font-family="Times,serif" font-size="14.00">So let it out and let it in</text>
</g>
<!-- &#45;&gt;So let it out and let it in -->
<g id="edge60" class="edge"><title>&#45;&gt;So let it out and let it in</title>
<path fill="none" stroke="black" d="M1462.64,-288.987C1448.41,-264.64 1421.19,-218.065 1404.12,-188.873"/>
<polygon fill="black" stroke="black" points="1407.04,-186.923 1398.97,-180.056 1400.99,-190.455 1407.04,-186.923"/>
</g>
<!-- You&#39;re waiting for someone to perform with. -->
<g id="node25" class="node"><title>You&#39;re waiting for someone to perform with.</title>
<ellipse fill="none" stroke="black" cx="1026" cy="-234" rx="183.274" ry="18"/>
<text text-anchor="middle" x="1026" y="-228.4" font-family="Times,serif" font-size="14.00">You&#39;re waiting for someone to perform with.</text>
</g>
<!-- &#45;&gt;You&#39;re waiting for someone to perform with. -->
<g id="edge68" class="edge"><title>&#45;&gt;You&#39;re waiting for someone to perform with.</title>
<path fill="none" stroke="black" d="M1445.77,-300.883C1385.14,-291.367 1232.6,-267.425 1129.1,-251.181"/>
<polygon fill="black" stroke="black" points="1129.35,-247.677 1118.92,-249.585 1128.26,-254.593 1129.35,-247.677"/>
</g>
<!-- The movement you need is on your shoulder. -->
<g id="node28" class="node"><title>The movement you need is on your shoulder.</title>
<ellipse fill="none" stroke="black" cx="2355" cy="-234" rx="185.056" ry="18"/>
<text text-anchor="middle" x="2355" y="-228.4" font-family="Times,serif" font-size="14.00">The movement you need is on your shoulder.</text>
</g>
<!-- &#45;&gt;The movement you need is on your shoulder. -->
<g id="edge78" class="edge"><title>&#45;&gt;The movement you need is on your shoulder.</title>
<path fill="none" stroke="black" d="M1498.83,-302.709C1589.97,-295.502 1894.74,-272.548 2147,-252 2166.6,-250.403 2187.29,-248.68 2207.71,-246.964"/>
<polygon fill="black" stroke="black" points="2208.04,-250.449 2217.71,-246.122 2207.45,-243.473 2208.04,-250.449"/>
</g>
<!-- Then you&#39;ll begin to make it -->
<g id="node30" class="node"><title>Then you&#39;ll begin to make it</title>
<ellipse fill="none" stroke="black" cx="2678" cy="-234" rx="119.179" ry="18"/>
<text text-anchor="middle" x="2678" y="-228.4" font-family="Times,serif" font-size="14.00">Then you&#39;ll begin to make it</text>
</g>
<!-- &#45;&gt;Then you&#39;ll begin to make it -->
<g id="edge86" class="edge"><title>&#45;&gt;Then you&#39;ll begin to make it</title>
<path fill="none" stroke="black" d="M1499.11,-304.483C1621.15,-301.983 2131.83,-289.689 2549,-252 2560.6,-250.952 2572.76,-249.636 2584.79,-248.204"/>
<polygon fill="black" stroke="black" points="2585.34,-251.662 2594.84,-246.976 2584.49,-244.714 2585.34,-251.662"/>
</g>
<!-- Then you can start to make it better.&#45;&gt; -->
<g id="edge12" class="edge"><title>Then you can start to make it better.&#45;&gt;</title>
<path fill="none" stroke="black" d="M256.966,-246.545C276.955,-248.585 297.623,-250.524 317,-252 756.321,-285.456 1290.64,-300.347 1434.78,-304.047"/>
<polygon fill="black" stroke="black" points="1434.78,-307.548 1444.86,-304.303 1434.96,-300.55 1434.78,-307.548"/>
</g>
<!-- You were made to go out and get her. -->
<g id="node8" class="node"><title>You were made to go out and get her.</title>
<ellipse fill="none" stroke="black" cx="1747" cy="-522" rx="155.24" ry="18"/>
<text text-anchor="middle" x="1747" y="-516.4" font-family="Times,serif" font-size="14.00">You were made to go out and get her.</text>
</g>
<!-- don&#39;t be afraid.&#45;&gt;You were made to go out and get her. -->
<g id="edge18" class="edge"><title>don&#39;t be afraid.&#45;&gt;You were made to go out and get her.</title>
<path fill="none" stroke="black" d="M1712.89,-576.055C1718.12,-567.922 1724.5,-557.998 1730.32,-548.943"/>
<polygon fill="black" stroke="black" points="1733.43,-550.58 1735.89,-540.275 1727.54,-546.794 1733.43,-550.58"/>
</g>
<!-- The minute you let her under your skin -->
<g id="node9" class="node"><title>The minute you let her under your skin</title>
<ellipse fill="none" stroke="black" cx="1751" cy="-378" rx="162.038" ry="18"/>
<text text-anchor="middle" x="1751" y="-372.4" font-family="Times,serif" font-size="14.00">The minute you let her under your skin</text>
</g>
<!-- You were made to go out and get her.&#45;&gt;The minute you let her under your skin -->
<g id="edge20" class="edge"><title>You were made to go out and get her.&#45;&gt;The minute you let her under your skin</title>
<path fill="none" stroke="black" d="M1747.48,-503.871C1748.16,-479.67 1749.42,-435.211 1750.23,-406.393"/>
<polygon fill="black" stroke="black" points="1753.73,-406.284 1750.52,-396.189 1746.74,-406.087 1753.73,-406.284"/>
</g>
<!-- The minute you let her under your skin&#45;&gt; -->
<g id="edge22" class="edge"><title>The minute you let her under your skin&#45;&gt;</title>
<path fill="none" stroke="black" d="M1688.73,-361.378C1632.71,-347.322 1552.42,-327.178 1506.94,-315.766"/>
<polygon fill="black" stroke="black" points="1507.52,-312.304 1496.97,-313.265 1505.82,-319.093 1507.52,-312.304"/>
</g>
<!-- Then you begin to make it better.&#45;&gt; -->
<g id="edge26" class="edge"><title>Then you begin to make it better.&#45;&gt;</title>
<path fill="none" stroke="black" d="M558.588,-246.161C578.338,-248.279 598.828,-250.347 618,-252 933.75,-279.221 1315.67,-297.591 1434.81,-303.195"/>
<polygon fill="black" stroke="black" points="1434.71,-306.694 1444.87,-303.667 1435.04,-299.702 1434.71,-306.694"/>
</g>
<!-- hey Jude -->
<g id="node12" class="node"><title>hey Jude</title>
<ellipse fill="none" stroke="black" cx="991" cy="-90" rx="45.1428" ry="18"/>
<text text-anchor="middle" x="991" y="-84.4" font-family="Times,serif" font-size="14.00">hey Jude</text>
</g>
<!-- And anytime you feel the pain&#45;&gt;hey Jude -->
<g id="edge30" class="edge"><title>And anytime you feel the pain&#45;&gt;hey Jude</title>
<path fill="none" stroke="black" d="M1105.83,-144.588C1082.7,-133.791 1052.43,-119.669 1028.79,-108.633"/>
<polygon fill="black" stroke="black" points="1029.97,-105.321 1019.42,-104.264 1027.01,-111.665 1029.97,-105.321"/>
</g>
<!-- refrain -->
<g id="node13" class="node"><title>refrain</title>
<ellipse fill="none" stroke="black" cx="682" cy="-18" rx="36.1558" ry="18"/>
<text text-anchor="middle" x="682" y="-12.4" font-family="Times,serif" font-size="14.00">refrain</text>
</g>
<!-- hey Jude&#45;&gt;refrain -->
<g id="edge32" class="edge"><title>hey Jude&#45;&gt;refrain</title>
<path fill="none" stroke="black" d="M952.801,-80.3464C894.797,-67.2065 784.885,-42.3072 724.454,-28.6173"/>
<polygon fill="black" stroke="black" points="725.008,-25.1544 714.482,-26.3584 723.462,-31.9814 725.008,-25.1544"/>
</g>
<!-- begin -->
<g id="node24" class="node"><title>begin</title>
<ellipse fill="none" stroke="black" cx="885" cy="-18" rx="32.2368" ry="18"/>
<text text-anchor="middle" x="885" y="-12.4" font-family="Times,serif" font-size="14.00">begin</text>
</g>
<!-- hey Jude&#45;&gt;begin -->
<g id="edge64" class="edge"><title>hey Jude&#45;&gt;begin</title>
<path fill="none" stroke="black" d="M968.779,-74.3257C952.753,-63.7425 930.981,-49.3649 913.649,-37.9191"/>
<polygon fill="black" stroke="black" points="915.317,-34.8266 905.044,-32.2365 911.46,-40.6678 915.317,-34.8266"/>
</g>
<!-- you&#39;ll do -->
<g id="node27" class="node"><title>you&#39;ll do</title>
<ellipse fill="none" stroke="black" cx="1038" cy="-18" rx="44.5479" ry="18"/>
<text text-anchor="middle" x="1038" y="-12.4" font-family="Times,serif" font-size="14.00">you&#39;ll do</text>
</g>
<!-- hey Jude&#45;&gt;you&#39;ll do -->
<g id="edge74" class="edge"><title>hey Jude&#45;&gt;you&#39;ll do</title>
<path fill="none" stroke="black" d="M1002.14,-72.411C1007.87,-63.8677 1014.98,-53.2785 1021.36,-43.7874"/>
<polygon fill="black" stroke="black" points="1024.27,-45.7232 1026.94,-35.4699 1018.46,-41.8211 1024.27,-45.7232"/>
</g>
<!-- refrain&#45;&gt; -->
<g id="edge34" class="edge"><title>refrain&#45;&gt;</title>
<path fill="none" stroke="black" d="M676.878,-36.1548C664.311,-82.1536 637.968,-207.745 710,-252 772.143,-290.18 1290.21,-301.88 1434.71,-304.415"/>
<polygon fill="black" stroke="black" points="1434.78,-307.917 1444.84,-304.589 1434.9,-300.918 1434.78,-307.917"/>
</g>
<!-- For well you know that it&#39;s a fool who plays it cool -->
<g id="node15" class="node"><title>For well you know that it&#39;s a fool who plays it cool</title>
<ellipse fill="none" stroke="black" cx="1755" cy="-162" rx="207.16" ry="18"/>
<text text-anchor="middle" x="1755" y="-156.4" font-family="Times,serif" font-size="14.00">For well you know that it&#39;s a fool who plays it cool</text>
</g>
<!-- Don&#39;t carry the world upon your shoulders.&#45;&gt;For well you know that it&#39;s a fool who plays it cool -->
<g id="edge38" class="edge"><title>Don&#39;t carry the world upon your shoulders.&#45;&gt;For well you know that it&#39;s a fool who plays it cool</title>
<path fill="none" stroke="black" d="M1729.4,-215.697C1733.27,-207.728 1737.95,-198.1 1742.24,-189.264"/>
<polygon fill="black" stroke="black" points="1745.47,-190.629 1746.69,-180.104 1739.17,-187.57 1745.47,-190.629"/>
</g>
<!-- By making his world a little colder. -->
<g id="node16" class="node"><title>By making his world a little colder.</title>
<ellipse fill="none" stroke="black" cx="1821" cy="-90" rx="147.338" ry="18"/>
<text text-anchor="middle" x="1821" y="-84.4" font-family="Times,serif" font-size="14.00">By making his world a little colder.</text>
</g>
<!-- For well you know that it&#39;s a fool who plays it cool&#45;&gt;By making his world a little colder. -->
<g id="edge40" class="edge"><title>For well you know that it&#39;s a fool who plays it cool&#45;&gt;By making his world a little colder.</title>
<path fill="none" stroke="black" d="M1771.31,-143.697C1779.31,-135.22 1789.07,-124.864 1797.82,-115.583"/>
<polygon fill="black" stroke="black" points="1800.56,-117.781 1804.87,-108.104 1795.47,-112.979 1800.56,-117.781"/>
</g>
<!-- By making his world a little colder.&#45;&gt; -->
<g id="edge42" class="edge"><title>By making his world a little colder.&#45;&gt;</title>
<path fill="none" stroke="black" d="M1912.66,-104.148C1935.36,-111.977 1957.12,-124.382 1971,-144 1980.24,-157.063 1976.69,-165.044 1971,-180 1967.2,-190.005 1916.48,-247.032 1907,-252 1838.05,-288.134 1601.35,-300.366 1509.17,-303.82"/>
<polygon fill="black" stroke="black" points="1508.78,-300.331 1498.91,-304.189 1509.03,-307.327 1508.78,-300.331"/>
</g>
<!-- da da da -->
<g id="node18" class="node"><title>da da da</title>
<ellipse fill="none" stroke="black" cx="2068" cy="-162" rx="43.3141" ry="18"/>
<text text-anchor="middle" x="2068" y="-156.4" font-family="Times,serif" font-size="14.00">da da da</text>
</g>
<!-- Da da da da da da&#45;&gt;da da da -->
<g id="edge46" class="edge"><title>Da da da da da da&#45;&gt;da da da</title>
<path fill="none" stroke="black" d="M2042.23,-216.055C2046.2,-207.887 2051.04,-197.912 2055.46,-188.824"/>
<polygon fill="black" stroke="black" points="2058.62,-190.313 2059.85,-179.789 2052.33,-187.255 2058.62,-190.313"/>
</g>
<!-- hey Jude... -->
<g id="node19" class="node"><title>hey Jude...</title>
<ellipse fill="none" stroke="black" cx="2105" cy="-90" rx="52.0078" ry="18"/>
<text text-anchor="middle" x="2105" y="-84.4" font-family="Times,serif" font-size="14.00">hey Jude...</text>
</g>
<!-- da da da&#45;&gt;hey Jude... -->
<g id="edge48" class="edge"><title>da da da&#45;&gt;hey Jude...</title>
<path fill="none" stroke="black" d="M2076.96,-144.055C2081.27,-135.887 2086.55,-125.912 2091.35,-116.824"/>
<polygon fill="black" stroke="black" points="2094.55,-118.266 2096.13,-107.789 2088.36,-114.994 2094.55,-118.266"/>
</g>
<!-- hey Jude...&#45;&gt; -->
<g id="edge50" class="edge"><title>hey Jude...&#45;&gt;</title>
<path fill="none" stroke="black" d="M2114.14,-107.953C2130.29,-140.491 2158.86,-212.011 2122,-252 2080.3,-297.239 1640.81,-303.864 1509.1,-304.834"/>
<polygon fill="black" stroke="black" points="1509.07,-301.334 1499.09,-304.901 1509.11,-308.334 1509.07,-301.334"/>
</g>
<!-- You have found her -->
<g id="node21" class="node"><title>You have found her</title>
<ellipse fill="none" stroke="black" cx="1446" cy="-522" rx="87.0567" ry="18"/>
<text text-anchor="middle" x="1446" y="-516.4" font-family="Times,serif" font-size="14.00">You have found her</text>
</g>
<!-- don&#39;t let me down.&#45;&gt;You have found her -->
<g id="edge54" class="edge"><title>don&#39;t let me down.&#45;&gt;You have found her</title>
<path fill="none" stroke="black" d="M1447.51,-575.697C1447.29,-567.983 1447.02,-558.712 1446.77,-550.112"/>
<polygon fill="black" stroke="black" points="1450.27,-550 1446.49,-540.104 1443.28,-550.2 1450.27,-550"/>
</g>
<!-- now go and get her. -->
<g id="node22" class="node"><title>now go and get her.</title>
<ellipse fill="none" stroke="black" cx="1446" cy="-450" rx="86.4085" ry="18"/>
<text text-anchor="middle" x="1446" y="-444.4" font-family="Times,serif" font-size="14.00">now go and get her.</text>
</g>
<!-- You have found her&#45;&gt;now go and get her. -->
<g id="edge56" class="edge"><title>You have found her&#45;&gt;now go and get her.</title>
<path fill="none" stroke="black" d="M1446,-503.697C1446,-495.983 1446,-486.712 1446,-478.112"/>
<polygon fill="black" stroke="black" points="1449.5,-478.104 1446,-468.104 1442.5,-478.104 1449.5,-478.104"/>
</g>
<!-- now go and get her.&#45;&gt;Remember to let her into your heart -->
<g id="edge58" class="edge"><title>now go and get her.&#45;&gt;Remember to let her into your heart</title>
<path fill="none" stroke="black" d="M1430.99,-432.055C1423.49,-423.583 1414.26,-413.168 1405.98,-403.815"/>
<polygon fill="black" stroke="black" points="1408.55,-401.441 1399.3,-396.275 1403.31,-406.082 1408.55,-401.441"/>
</g>
<!-- So let it out and let it in&#45;&gt;hey Jude -->
<g id="edge62" class="edge"><title>So let it out and let it in&#45;&gt;hey Jude</title>
<path fill="none" stroke="black" d="M1319.67,-148.807C1240.18,-134.825 1111.78,-112.242 1041.3,-99.8469"/>
<polygon fill="black" stroke="black" points="1041.79,-96.3793 1031.34,-98.0942 1040.58,-103.274 1041.79,-96.3793"/>
</g>
<!-- begin&#45;&gt; -->
<g id="edge66" class="edge"><title>begin&#45;&gt;</title>
<path fill="none" stroke="black" d="M856.433,-26.7335C789.261,-46.397 630.558,-102.305 680,-180 720.564,-243.743 760.986,-232.568 834,-252 948.816,-282.557 1316.84,-299.041 1435.06,-303.645"/>
<polygon fill="black" stroke="black" points="1434.94,-307.143 1445.07,-304.03 1435.21,-300.148 1434.94,-307.143"/>
</g>
<!-- And don&#39;t you know that it&#39;s just you -->
<g id="node26" class="node"><title>And don&#39;t you know that it&#39;s just you</title>
<ellipse fill="none" stroke="black" cx="842" cy="-162" rx="153.305" ry="18"/>
<text text-anchor="middle" x="842" y="-156.4" font-family="Times,serif" font-size="14.00">And don&#39;t you know that it&#39;s just you</text>
</g>
<!-- You&#39;re waiting for someone to perform with.&#45;&gt;And don&#39;t you know that it&#39;s just you -->
<g id="edge70" class="edge"><title>You&#39;re waiting for someone to perform with.&#45;&gt;And don&#39;t you know that it&#39;s just you</title>
<path fill="none" stroke="black" d="M982.395,-216.411C956.062,-206.393 922.335,-193.562 894.538,-182.987"/>
<polygon fill="black" stroke="black" points="895.566,-179.634 884.975,-179.349 893.077,-186.176 895.566,-179.634"/>
</g>
<!-- And don&#39;t you know that it&#39;s just you&#45;&gt;hey Jude -->
<g id="edge72" class="edge"><title>And don&#39;t you know that it&#39;s just you&#45;&gt;hey Jude</title>
<path fill="none" stroke="black" d="M877.311,-144.411C900.304,-133.609 930.26,-119.535 953.65,-108.547"/>
<polygon fill="black" stroke="black" points="955.346,-111.617 962.909,-104.197 952.369,-105.282 955.346,-111.617"/>
</g>
<!-- you&#39;ll do&#45;&gt; -->
<g id="edge76" class="edge"><title>you&#39;ll do&#45;&gt;</title>
<path fill="none" stroke="black" d="M1080.21,-23.9645C1184.1,-37.1381 1447.48,-76.6542 1499,-144 1529.54,-183.918 1504.81,-245.785 1486.73,-280.04"/>
<polygon fill="black" stroke="black" points="1483.6,-278.477 1481.86,-288.928 1489.74,-281.841 1483.6,-278.477"/>
</g>
<!-- The movement you need is on your shoulder.&#45;&gt; -->
<g id="edge80" class="edge"><title>The movement you need is on your shoulder.&#45;&gt;</title>
<path fill="none" stroke="black" d="M2225.81,-246.938C2205.49,-248.663 2184.7,-250.395 2165,-252 1914.76,-272.383 1612.87,-295.133 1509.03,-302.532"/>
<polygon fill="black" stroke="black" points="1508.48,-299.062 1498.76,-303.259 1508.98,-306.044 1508.48,-299.062"/>
</g>
<!-- Remember to let her under your skin&#45;&gt; -->
<g id="edge84" class="edge"><title>Remember to let her under your skin&#45;&gt;</title>
<path fill="none" stroke="black" d="M1145.77,-362.834C1234.43,-347.659 1371.1,-324.269 1435.74,-313.206"/>
<polygon fill="black" stroke="black" points="1436.58,-316.613 1445.85,-311.476 1435.4,-309.713 1436.58,-316.613"/>
</g>
<!-- Better better better better better better -->
<g id="node31" class="node"><title>Better better better better better better</title>
<ellipse fill="none" stroke="black" cx="2659" cy="-162" rx="156.425" ry="18"/>
<text text-anchor="middle" x="2659" y="-156.4" font-family="Times,serif" font-size="14.00">Better better better better better better</text>
</g>
<!-- Then you&#39;ll begin to make it&#45;&gt;Better better better better better better -->
<g id="edge88" class="edge"><title>Then you&#39;ll begin to make it&#45;&gt;Better better better better better better</title>
<path fill="none" stroke="black" d="M2673.3,-215.697C2671.19,-207.898 2668.64,-198.509 2666.28,-189.829"/>
<polygon fill="black" stroke="black" points="2669.64,-188.838 2663.64,-180.104 2662.88,-190.672 2669.64,-188.838"/>
</g>
<!-- oh. -->
<g id="node32" class="node"><title>oh.</title>
<ellipse fill="none" stroke="black" cx="2751" cy="-90" rx="27" ry="18"/>
<text text-anchor="middle" x="2751" y="-84.4" font-family="Times,serif" font-size="14.00">oh.</text>
</g>
<!-- Better better better better better better&#45;&gt;oh. -->
<g id="edge90" class="edge"><title>Better better better better better better&#45;&gt;oh.</title>
<path fill="none" stroke="black" d="M2681.27,-144.055C2694.66,-133.869 2711.74,-120.872 2725.64,-110.292"/>
<polygon fill="black" stroke="black" points="2727.99,-112.905 2733.83,-104.064 2723.75,-107.334 2727.99,-112.905"/>
</g>
<!-- oh.&#45;&gt; -->
<g id="edge92" class="edge"><title>oh.&#45;&gt;</title>
<path fill="none" stroke="black" d="M2773.39,-100.313C2790.72,-108.862 2813.47,-123.349 2824,-144 2846.1,-187.355 2843.75,-221.297 2806,-252 2754.33,-294.021 1719.8,-303.311 1509.22,-304.77"/>
<polygon fill="black" stroke="black" points="1508.97,-301.271 1498.99,-304.839 1509.02,-308.271 1508.97,-301.271"/>
</g>
</g>
</svg>
